<mxfile host="Electron" modified="2024-04-23T06:27:19.560Z" agent="Mozilla/5.0 (Windows NT 10.0; Win64; x64) AppleWebKit/537.36 (KHTML, like Gecko) draw.io/24.1.0 Chrome/120.0.6099.109 Electron/28.1.0 Safari/537.36" etag="JA5lzdCnZrOA6P_f8mFn" version="24.1.0" type="device">
  <diagram name="第 1 页" id="0Ce1iB-xMDuGJAOADJND">
    <mxGraphModel dx="875" dy="650" grid="1" gridSize="10" guides="1" tooltips="1" connect="1" arrows="1" fold="1" page="1" pageScale="1" pageWidth="827" pageHeight="1169" math="0" shadow="0">
      <root>
        <mxCell id="0" />
        <mxCell id="1" parent="0" />
        <mxCell id="l3fhJOyo02lw1J3A6uzV-7" value="" style="rounded=1;whiteSpace=wrap;html=1;arcSize=3;strokeWidth=2;" parent="1" vertex="1">
          <mxGeometry x="30" y="180" width="500" height="340" as="geometry" />
        </mxCell>
        <mxCell id="l3fhJOyo02lw1J3A6uzV-8" value="" style="rounded=1;whiteSpace=wrap;html=1;arcSize=3;strokeWidth=2;" parent="1" vertex="1">
          <mxGeometry x="50" y="220" width="170" height="280" as="geometry" />
        </mxCell>
        <mxCell id="l3fhJOyo02lw1J3A6uzV-9" value="&lt;font style=&quot;font-size: 13px;&quot;&gt;&lt;b&gt;电脑ubuntu&lt;/b&gt;&lt;/font&gt;" style="text;html=1;align=center;verticalAlign=middle;whiteSpace=wrap;rounded=0;fontFamily=Helvetica;fontSize=12;fontColor=default;" parent="1" vertex="1">
          <mxGeometry x="220" y="190" width="120" height="30" as="geometry" />
        </mxCell>
        <mxCell id="l3fhJOyo02lw1J3A6uzV-10" value="客户端" style="text;html=1;align=center;verticalAlign=middle;whiteSpace=wrap;rounded=0;fontFamily=Helvetica;fontSize=12;fontColor=default;" parent="1" vertex="1">
          <mxGeometry x="105" y="220" width="60" height="30" as="geometry" />
        </mxCell>
        <mxCell id="l3fhJOyo02lw1J3A6uzV-13" value="" style="edgeStyle=orthogonalEdgeStyle;rounded=0;orthogonalLoop=1;jettySize=auto;html=1;fontFamily=Helvetica;fontSize=12;fontColor=default;shape=flexArrow;" parent="1" source="l3fhJOyo02lw1J3A6uzV-11" target="l3fhJOyo02lw1J3A6uzV-12" edge="1">
          <mxGeometry relative="1" as="geometry" />
        </mxCell>
        <mxCell id="l3fhJOyo02lw1J3A6uzV-15" value="显示" style="edgeLabel;html=1;align=center;verticalAlign=middle;resizable=0;points=[];rounded=5;strokeColor=default;fontFamily=Helvetica;fontSize=12;fontColor=default;fillColor=default;" parent="l3fhJOyo02lw1J3A6uzV-13" vertex="1" connectable="0">
          <mxGeometry x="-0.08" y="-3" relative="1" as="geometry">
            <mxPoint x="31" y="-3" as="offset" />
          </mxGeometry>
        </mxCell>
        <mxCell id="l3fhJOyo02lw1J3A6uzV-11" value="摄像头采集" style="rounded=0;whiteSpace=wrap;html=1;strokeColor=default;align=center;verticalAlign=middle;fontFamily=Helvetica;fontSize=12;fontColor=default;fillColor=default;" parent="1" vertex="1">
          <mxGeometry x="75" y="250" width="115" height="40" as="geometry" />
        </mxCell>
        <mxCell id="l3fhJOyo02lw1J3A6uzV-12" value="QT界面" style="rounded=0;whiteSpace=wrap;html=1;strokeColor=default;align=center;verticalAlign=middle;fontFamily=Helvetica;fontSize=12;fontColor=default;fillColor=default;" parent="1" vertex="1">
          <mxGeometry x="75" y="340" width="115" height="40" as="geometry" />
        </mxCell>
        <mxCell id="l3fhJOyo02lw1J3A6uzV-16" value="QT管理界面" style="rounded=0;whiteSpace=wrap;html=1;strokeColor=default;align=center;verticalAlign=middle;fontFamily=Helvetica;fontSize=12;fontColor=default;fillColor=default;" parent="1" vertex="1">
          <mxGeometry x="75" y="390" width="115" height="40" as="geometry" />
        </mxCell>
        <mxCell id="l3fhJOyo02lw1J3A6uzV-17" value="网络通讯客户端" style="rounded=0;whiteSpace=wrap;html=1;strokeColor=default;align=center;verticalAlign=middle;fontFamily=Helvetica;fontSize=12;fontColor=default;fillColor=default;" parent="1" vertex="1">
          <mxGeometry x="75" y="440" width="115" height="40" as="geometry" />
        </mxCell>
        <mxCell id="l3fhJOyo02lw1J3A6uzV-18" value="" style="rounded=1;whiteSpace=wrap;html=1;arcSize=3;strokeWidth=2;" parent="1" vertex="1">
          <mxGeometry x="340" y="220" width="170" height="280" as="geometry" />
        </mxCell>
        <mxCell id="l3fhJOyo02lw1J3A6uzV-19" value="服务端" style="text;html=1;align=center;verticalAlign=middle;whiteSpace=wrap;rounded=0;fontFamily=Helvetica;fontSize=12;fontColor=default;" parent="1" vertex="1">
          <mxGeometry x="395" y="220" width="60" height="30" as="geometry" />
        </mxCell>
        <mxCell id="l3fhJOyo02lw1J3A6uzV-27" value="" style="edgeStyle=orthogonalEdgeStyle;rounded=0;orthogonalLoop=1;jettySize=auto;html=1;fontFamily=Helvetica;fontSize=12;fontColor=default;shape=flexArrow;" parent="1" source="l3fhJOyo02lw1J3A6uzV-20" target="l3fhJOyo02lw1J3A6uzV-26" edge="1">
          <mxGeometry relative="1" as="geometry" />
        </mxCell>
        <mxCell id="l3fhJOyo02lw1J3A6uzV-28" value="识别" style="edgeLabel;html=1;align=center;verticalAlign=middle;resizable=0;points=[];rounded=5;strokeColor=default;fontFamily=Helvetica;fontSize=12;fontColor=default;fillColor=default;" parent="l3fhJOyo02lw1J3A6uzV-27" vertex="1" connectable="0">
          <mxGeometry y="4" relative="1" as="geometry">
            <mxPoint x="21" y="-5" as="offset" />
          </mxGeometry>
        </mxCell>
        <mxCell id="l3fhJOyo02lw1J3A6uzV-20" value="人脸检测" style="rounded=0;whiteSpace=wrap;html=1;strokeColor=default;align=center;verticalAlign=middle;fontFamily=Helvetica;fontSize=12;fontColor=default;fillColor=default;" parent="1" vertex="1">
          <mxGeometry x="367.5" y="250" width="115" height="40" as="geometry" />
        </mxCell>
        <mxCell id="l3fhJOyo02lw1J3A6uzV-23" value="" style="shape=flexArrow;endArrow=classic;html=1;rounded=0;fontFamily=Helvetica;fontSize=12;fontColor=default;entryX=0.62;entryY=0.265;entryDx=0;entryDy=0;entryPerimeter=0;strokeWidth=2;" parent="1" target="l3fhJOyo02lw1J3A6uzV-7" edge="1">
          <mxGeometry width="50" height="50" relative="1" as="geometry">
            <mxPoint x="220" y="270" as="sourcePoint" />
            <mxPoint x="280" y="260" as="targetPoint" />
          </mxGeometry>
        </mxCell>
        <mxCell id="l3fhJOyo02lw1J3A6uzV-25" value="录入人脸：发送图像" style="edgeLabel;html=1;align=center;verticalAlign=middle;resizable=0;points=[];rounded=5;strokeColor=default;fontFamily=Helvetica;fontSize=12;fontColor=default;fillColor=default;" parent="l3fhJOyo02lw1J3A6uzV-23" vertex="1" connectable="0">
          <mxGeometry x="-0.15" y="1" relative="1" as="geometry">
            <mxPoint x="9" y="-29" as="offset" />
          </mxGeometry>
        </mxCell>
        <mxCell id="l3fhJOyo02lw1J3A6uzV-26" value="人脸识别" style="rounded=0;whiteSpace=wrap;html=1;strokeColor=default;align=center;verticalAlign=middle;fontFamily=Helvetica;fontSize=12;fontColor=default;fillColor=default;" parent="1" vertex="1">
          <mxGeometry x="367.5" y="340" width="115" height="40" as="geometry" />
        </mxCell>
        <mxCell id="l3fhJOyo02lw1J3A6uzV-29" value="" style="shape=flexArrow;endArrow=block;html=1;rounded=0;fontFamily=Helvetica;fontSize=12;fontColor=default;entryX=0.62;entryY=0.265;entryDx=0;entryDy=0;entryPerimeter=0;endFill=0;strokeWidth=2;" parent="1" edge="1">
          <mxGeometry width="50" height="50" relative="1" as="geometry">
            <mxPoint x="339" y="359.5" as="sourcePoint" />
            <mxPoint x="219" y="359.5" as="targetPoint" />
          </mxGeometry>
        </mxCell>
        <mxCell id="l3fhJOyo02lw1J3A6uzV-30" value="返回结果" style="edgeLabel;html=1;align=center;verticalAlign=middle;resizable=0;points=[];rounded=5;strokeColor=default;fontFamily=Helvetica;fontSize=12;fontColor=default;fillColor=default;" parent="l3fhJOyo02lw1J3A6uzV-29" vertex="1" connectable="0">
          <mxGeometry x="-0.15" y="1" relative="1" as="geometry">
            <mxPoint x="-9" y="-20" as="offset" />
          </mxGeometry>
        </mxCell>
        <mxCell id="l3fhJOyo02lw1J3A6uzV-31" value="用户管理数据库" style="rounded=0;whiteSpace=wrap;html=1;strokeColor=default;align=center;verticalAlign=middle;fontFamily=Helvetica;fontSize=12;fontColor=default;fillColor=default;" parent="1" vertex="1">
          <mxGeometry x="367.5" y="390" width="115" height="40" as="geometry" />
        </mxCell>
        <mxCell id="l3fhJOyo02lw1J3A6uzV-32" value="" style="shape=flexArrow;endArrow=classic;html=1;rounded=0;fontFamily=Helvetica;fontSize=12;fontColor=default;entryX=0.62;entryY=0.265;entryDx=0;entryDy=0;entryPerimeter=0;strokeWidth=2;" parent="1" edge="1">
          <mxGeometry width="50" height="50" relative="1" as="geometry">
            <mxPoint x="220" y="409.5" as="sourcePoint" />
            <mxPoint x="340" y="409.5" as="targetPoint" />
          </mxGeometry>
        </mxCell>
        <mxCell id="l3fhJOyo02lw1J3A6uzV-33" value="添加/删除数据库" style="edgeLabel;html=1;align=center;verticalAlign=middle;resizable=0;points=[];rounded=5;strokeColor=default;fontFamily=Helvetica;fontSize=12;fontColor=default;fillColor=default;" parent="l3fhJOyo02lw1J3A6uzV-32" vertex="1" connectable="0">
          <mxGeometry x="-0.15" y="1" relative="1" as="geometry">
            <mxPoint x="-1" y="-18" as="offset" />
          </mxGeometry>
        </mxCell>
        <mxCell id="l3fhJOyo02lw1J3A6uzV-34" value="网络通讯服务器" style="rounded=0;whiteSpace=wrap;html=1;strokeColor=default;align=center;verticalAlign=middle;fontFamily=Helvetica;fontSize=12;fontColor=default;fillColor=default;" parent="1" vertex="1">
          <mxGeometry x="367.5" y="440" width="115" height="40" as="geometry" />
        </mxCell>
        <mxCell id="l3fhJOyo02lw1J3A6uzV-35" value="" style="shape=flexArrow;endArrow=classic;startArrow=classic;html=1;rounded=0;fontFamily=Helvetica;fontSize=12;fontColor=default;entryX=-0.029;entryY=0.857;entryDx=0;entryDy=0;entryPerimeter=0;strokeWidth=2;" parent="1" edge="1">
          <mxGeometry width="100" height="100" relative="1" as="geometry">
            <mxPoint x="220" y="459" as="sourcePoint" />
            <mxPoint x="339.99999999999994" y="459.00000000000006" as="targetPoint" />
          </mxGeometry>
        </mxCell>
        <mxCell id="l3fhJOyo02lw1J3A6uzV-36" value="socket通信" style="text;html=1;align=center;verticalAlign=middle;whiteSpace=wrap;rounded=0;fontFamily=Helvetica;fontSize=12;fontColor=default;" parent="1" vertex="1">
          <mxGeometry x="245" y="430" width="70" height="30" as="geometry" />
        </mxCell>
      </root>
    </mxGraphModel>
  </diagram>
</mxfile>
